<?xml version="1.0" standalone="no"?>
<!DOCTYPE svg PUBLIC "-//W3C//DTD SVG 20010904//EN"
 "http://www.w3.org/TR/2001/REC-SVG-20010904/DTD/svg10.dtd">
<svg version="1.0" xmlns="http://www.w3.org/2000/svg"
 width="1010.000000pt" height="808.000000pt" viewBox="0 0 1010.000000 808.000000"
 preserveAspectRatio="xMidYMid meet">

<g transform="translate(0.000000,808.000000) scale(0.100000,-0.100000)"
fill="#000000" stroke="none">
<path d="M2546 6939 c-234 -39 -426 -208 -498 -439 l-23 -75 0 -1350 c0 -1258
1 -1354 18 -1414 59 -213 236 -391 445 -446 58 -16 197 -17 1355 -16 l337 1 0
220 0 220 270 0 270 0 0 -100 0 -100 -225 0 -225 0 0 -120 0 -120 410 0 c226
-1 525 -1 665 -1 140 0 260 0 265 1 6 0 10 80 10 220 l0 220 270 0 270 0 0
-100 0 -100 -225 0 -225 0 0 -120 0 -120 40 0 c22 -1 312 -1 645 -1 333 0 619
0 635 1 l30 0 0 220 0 220 265 0 265 0 0 -44 c0 -56 -32 -104 -90 -133 -40
-21 -58 -23 -197 -23 l-153 0 0 -120 c0 -118 0 -120 23 -121 130 -4 368 3 405
12 26 6 85 29 131 51 157 75 282 229 326 403 23 90 23 2720 0 2810 -37 146
-138 289 -263 371 -31 21 -95 52 -142 68 l-85 31 -557 3 -558 3 0 -125 0 -126
225 0 225 0 0 -100 0 -100 -270 0 -270 0 0 225 0 225 -675 0 -675 0 0 -125 0
-125 225 0 225 0 0 -100 0 -100 -270 0 -270 0 0 225 0 225 -675 0 -675 0 0
-125 0 -125 225 0 225 0 0 -100 0 -100 -270 0 -270 0 0 225 0 225 -432 -1
c-238 -1 -455 -5 -482 -10z m734 -339 l0 -100 -255 0 -255 0 0 40 c0 64 41
125 100 149 14 5 112 10 218 10 l192 1 0 -100z m1440 0 l0 -100 -270 0 -270 0
0 100 0 100 270 0 270 0 0 -100z m1440 0 l0 -100 -270 0 -270 0 0 100 0 100
270 0 270 0 0 -100z m1357 74 c46 -34 73 -82 73 -130 l0 -44 -265 0 -265 0 0
101 0 100 214 -3 c199 -3 217 -4 243 -24z m-4133 -240 c20 -8 21 -38 1 -54
-12 -10 -18 -10 -30 0 -18 15 -20 46 -2 53 6 3 13 6 14 6 1 1 8 -2 17 -5z
m725 -8 c25 -30 -16 -67 -44 -40 -18 19 -19 26 -3 42 16 16 33 15 47 -2z m731
-5 c14 -28 -13 -55 -41 -41 -22 12 -25 30 -7 48 18 18 36 15 48 -7z m714 -4
c9 -14 7 -21 -7 -32 -25 -18 -47 -9 -47 19 0 40 32 48 54 13z m720 0 c9 -14 7
-21 -7 -32 -25 -18 -47 -9 -47 19 0 40 32 48 54 13z m710 17 c20 -8 21 -38 1
-54 -12 -10 -18 -10 -30 0 -18 15 -20 46 -2 53 6 3 13 6 14 6 1 1 8 -2 17 -5z
m-3706 -1361 l-3 -1248 -252 -3 -253 -2 0 1250 0 1250 255 0 255 0 -2 -1247z
m722 897 l0 -350 90 0 90 0 0 350 0 350 270 0 270 0 0 -1250 0 -1250 -270 0
-270 0 0 350 0 350 -90 0 -90 0 0 -350 0 -350 -270 0 -270 0 0 1250 0 1250
270 0 270 0 0 -350z m1440 -900 l0 -1250 -270 0 -270 0 0 1250 0 1250 270 0
270 0 0 -1250z m720 900 l0 -350 90 0 90 0 0 350 0 350 270 0 270 0 0 -1250 0
-1250 -270 0 -270 0 0 350 0 350 -90 0 -90 0 0 -350 0 -350 -270 0 -270 0 0
1250 0 1250 270 0 270 0 0 -350z m1430 -900 l0 -1250 -265 0 -265 0 0 1250 0
1250 265 0 265 0 0 -1250z m273 439 c14 -6 30 -22 36 -36 7 -16 11 -146 11
-403 0 -257 -4 -387 -11 -403 -11 -25 -47 -47 -75 -47 -9 0 -29 13 -45 29
l-29 29 0 392 0 392 29 29 c32 32 47 35 84 18z m-5336 -215 c115 -55 169 -206
116 -325 -22 -50 -88 -114 -139 -135 -40 -17 -124 -18 -178 -3 -53 15 -138
100 -154 155 -46 156 38 303 191 334 56 10 101 3 164 -26z m868 -1564 c0 -18
-6 -26 -23 -28 -13 -2 -25 3 -28 12 -10 26 4 48 28 44 17 -2 23 -10 23 -28z
m715 15 c10 -12 10 -18 0 -30 -7 -8 -18 -15 -25 -15 -7 0 -18 7 -25 15 -10 12
-10 18 0 30 7 8 18 15 25 15 7 0 18 -7 25 -15z m730 0 c10 -12 10 -18 0 -30
-26 -32 -68 -8 -54 30 4 8 14 15 24 15 10 0 23 -7 30 -15z m715 -15 c0 -18 -6
-26 -23 -28 -13 -2 -25 3 -28 12 -10 26 4 48 28 44 17 -2 23 -10 23 -28z m720
0 c0 -18 -6 -26 -23 -28 -13 -2 -25 3 -28 12 -10 26 4 48 28 44 17 -2 23 -10
23 -28z m720 0 c0 -18 -6 -26 -23 -28 -13 -2 -25 3 -28 12 -10 26 4 48 28 44
17 -2 23 -10 23 -28z m-3715 -190 l0 -100 -188 0 c-175 0 -191 2 -232 23 -58
29 -90 77 -90 133 l0 44 255 0 255 0 0 -100z m720 0 l0 -100 -270 0 -270 0 0
100 0 100 270 0 270 0 0 -100z m1440 0 l0 -100 -270 0 -270 0 0 100 0 100 270
0 270 0 0 -100z m1440 0 l0 -100 -270 0 -270 0 0 100 0 100 270 0 270 0 0
-100z"/>
<path d="M2330 5208 c-57 -39 -75 -72 -75 -137 0 -47 5 -64 27 -93 93 -122
273 -68 286 84 3 44 0 59 -20 88 -54 79 -149 105 -218 58z"/>
<path d="M2429 2807 c-92 -34 -139 -102 -139 -198 0 -104 60 -167 202 -213
125 -39 155 -69 111 -109 -46 -41 -135 -28 -180 27 l-28 34 -60 -35 c-33 -19
-64 -38 -68 -43 -13 -12 17 -62 61 -102 57 -51 126 -71 227 -66 98 5 160 36
203 100 23 35 27 52 27 109 0 59 -4 73 -30 110 -32 45 -102 87 -219 132 -66
25 -87 47 -70 75 7 11 26 18 56 20 41 3 48 0 75 -31 l31 -35 70 42 c63 37 69
44 60 61 -19 36 -72 86 -113 107 -50 26 -165 34 -216 15z"/>
<path d="M5100 2809 c-109 -22 -217 -107 -263 -207 -17 -38 -22 -66 -22 -142
0 -82 4 -103 27 -152 35 -75 94 -138 164 -173 47 -24 73 -30 143 -33 119 -5
182 19 269 104 35 34 62 68 60 75 -2 7 -35 30 -72 50 l-68 37 -32 -36 c-38
-43 -81 -62 -141 -62 -112 0 -191 87 -183 201 9 120 117 197 235 168 30 -8 59
-25 84 -50 l39 -39 67 37 c38 20 70 38 72 40 2 1 -8 20 -22 42 -68 103 -230
167 -357 140z"/>
<path d="M5809 2810 c-63 -11 -137 -51 -188 -101 -145 -145 -138 -378 14 -518
78 -71 145 -94 256 -89 70 3 96 9 143 33 53 27 156 123 156 145 0 5 -32 27
-71 49 l-71 39 -29 -33 c-76 -86 -208 -87 -288 -1 -46 49 -57 149 -23 212 19
36 80 83 121 94 65 17 163 -15 196 -67 l15 -23 73 36 c39 20 74 38 76 40 6 6
-27 51 -66 89 -49 48 -114 81 -188 94 -64 12 -60 12 -126 1z"/>
<path d="M6820 2809 c-112 -23 -208 -99 -258 -207 -23 -49 -27 -70 -27 -147 0
-77 4 -98 26 -145 37 -78 87 -131 161 -171 60 -33 67 -34 168 -34 96 0 110 2
158 28 72 38 133 100 168 173 25 51 28 71 29 149 0 82 -3 96 -33 157 -72 147
-236 229 -392 197z m160 -188 c19 -10 48 -37 65 -60 24 -34 29 -52 30 -99 0
-76 -26 -127 -84 -163 -94 -60 -222 -26 -270 73 -80 167 92 333 259 249z"/>
<path d="M8665 2804 c-114 -42 -167 -176 -112 -284 28 -56 79 -91 182 -124
121 -39 151 -69 108 -109 -55 -49 -172 -16 -195 55 -4 12 -148 -68 -148 -82 0
-18 63 -92 97 -114 60 -38 108 -49 197 -44 148 8 236 85 236 205 -1 106 -61
173 -200 223 -101 37 -130 54 -130 78 0 29 21 42 67 42 33 0 50 -6 68 -25 14
-13 25 -29 25 -35 0 -9 56 18 139 69 11 6 8 16 -13 48 -50 75 -127 114 -225
112 -31 0 -74 -7 -96 -15z"/>
<path d="M1090 2460 l0 -350 220 0 220 0 0 80 0 80 -135 0 -135 0 0 270 0 270
-85 0 -85 0 0 -350z"/>
<path d="M1825 2798 c-3 -7 -59 -161 -125 -342 -66 -180 -120 -332 -120 -337
0 -5 40 -9 89 -9 l89 0 20 58 19 57 123 0 124 0 20 -57 21 -58 91 0 91 0 -94
258 c-52 141 -110 298 -127 347 l-33 90 -92 3 c-67 2 -93 -1 -96 -10z m149
-385 c7 -22 5 -23 -53 -23 -34 0 -61 2 -61 4 0 6 51 140 57 150 6 8 35 -60 57
-131z"/>
<path d="M3228 2542 c-54 -147 -111 -304 -128 -350 l-30 -83 92 3 93 3 20 58
20 57 121 0 122 0 22 -60 22 -60 90 0 c68 0 89 3 86 13 -3 6 -60 164 -128 350
l-123 337 -91 0 -91 0 -97 -268z m225 -79 l27 -73 -60 0 c-33 0 -60 3 -60 8 0
21 54 152 60 145 4 -4 19 -41 33 -80z"/>
<path d="M3810 2460 l0 -352 198 4 c162 4 204 7 237 22 142 65 216 174 216
321 0 140 -72 254 -199 317 l-67 33 -192 3 -193 4 0 -352z m383 165 c100 -48
130 -191 60 -283 -39 -51 -93 -72 -190 -72 l-83 0 0 191 0 191 88 -4 c56 -3
101 -11 125 -23z"/>
<path d="M4560 2460 l0 -350 85 0 85 0 0 350 0 350 -85 0 -85 0 0 -350z"/>
<path d="M6280 2460 l0 -350 85 0 85 0 0 350 0 350 -85 0 -85 0 0 -350z"/>
<path d="M7320 2460 l0 -350 85 0 85 0 1 38 c0 20 0 108 0 196 1 107 4 155 11
148 6 -6 63 -93 127 -194 l118 -183 71 -3 72 -3 0 351 0 350 -85 0 -85 0 0
-177 0 -177 -112 177 -113 177 -87 0 -88 0 0 -350z"/>
<path d="M8020 2460 l0 -350 220 0 220 0 0 80 0 80 -135 0 -135 0 0 60 0 60
120 0 120 0 0 80 0 80 -120 0 -120 0 0 50 0 50 135 0 135 0 0 80 0 80 -220 0
-220 0 0 -350z"/>
</g>
</svg>
